<svg width="117" height="19" viewBox="0 0 117 19" fill="none" xmlns="http://www.w3.org/2000/svg">
<path d="M5.09659 18H0.5625L6.4517 0.545454H12.0682L17.9574 18H13.4233L9.32386 4.94318H9.1875L5.09659 18ZM4.49148 11.1307H13.9688V14.3352H4.49148V11.1307ZM19.8366 18V0.545454H27.0469C28.3537 0.545454 29.4815 0.78125 30.4304 1.25284C31.3849 1.71875 32.1207 2.3892 32.6378 3.2642C33.1548 4.13352 33.4134 5.16477 33.4134 6.35795C33.4134 7.56818 33.1491 8.59659 32.6207 9.44318C32.0923 10.2841 31.3423 10.9261 30.3707 11.3693C29.3991 11.8068 28.2486 12.0256 26.919 12.0256H22.3594V8.7017H26.1349C26.7713 8.7017 27.3026 8.61932 27.7287 8.45455C28.1605 8.28409 28.4872 8.02841 28.7088 7.6875C28.9304 7.34091 29.0412 6.89773 29.0412 6.35795C29.0412 5.81818 28.9304 5.37216 28.7088 5.01989C28.4872 4.66193 28.1605 4.39489 27.7287 4.21875C27.2969 4.03693 26.7656 3.94602 26.1349 3.94602H24.0554V18H19.8366ZM29.6634 10.0227L34.0099 18H29.4077L25.1463 10.0227H29.6634ZM35.1562 3.97159V0.545454H49.9091V3.97159H44.6165V18H40.4574V3.97159H35.1562ZM51.3984 3.97159V0.545454H66.1513V3.97159H60.8587V18H56.6996V3.97159H51.3984ZM68.2116 18V0.545454H80.3821V3.97159H72.4304V7.55114H79.7599V10.9858H72.4304V14.5739H80.3821V18H68.2116ZM98.8679 6.86932H94.6065C94.5497 6.43182 94.4332 6.03693 94.2571 5.68466C94.081 5.33239 93.848 5.03125 93.5582 4.78125C93.2685 4.53125 92.9247 4.34091 92.527 4.21023C92.1349 4.07386 91.7003 4.00568 91.223 4.00568C90.3764 4.00568 89.6463 4.21307 89.0327 4.62784C88.4247 5.04261 87.956 5.64205 87.6264 6.42614C87.3026 7.21023 87.1406 8.15909 87.1406 9.27273C87.1406 10.4318 87.3054 11.4034 87.6349 12.1875C87.9702 12.9659 88.4389 13.554 89.0412 13.9517C89.6491 14.3437 90.3679 14.5398 91.1974 14.5398C91.6634 14.5398 92.0866 14.4801 92.4673 14.3608C92.8537 14.2415 93.1918 14.0682 93.4815 13.8409C93.777 13.608 94.0185 13.3267 94.206 12.9972C94.3991 12.6619 94.5327 12.2841 94.6065 11.8636L98.8679 11.8892C98.794 12.6619 98.5696 13.4233 98.1946 14.1733C97.8253 14.9233 97.3168 15.608 96.669 16.2273C96.0213 16.8409 95.2315 17.3295 94.2997 17.6932C93.3736 18.0568 92.3111 18.2386 91.1122 18.2386C89.5327 18.2386 88.1179 17.892 86.8679 17.1989C85.6236 16.5 84.6406 15.483 83.919 14.1477C83.1974 12.8125 82.8366 11.1875 82.8366 9.27273C82.8366 7.35227 83.2031 5.72443 83.9361 4.3892C84.669 3.05398 85.6605 2.03977 86.9105 1.34659C88.1605 0.653409 89.5611 0.306818 91.1122 0.306818C92.169 0.306818 93.1463 0.454545 94.044 0.75C94.9418 1.03977 95.7315 1.46591 96.4134 2.02841C97.0952 2.58523 97.6491 3.26989 98.0753 4.08239C98.5014 4.89489 98.7656 5.82386 98.8679 6.86932ZM101.282 18V0.545454H105.501V7.55114H112.379V0.545454H116.589V18H112.379V10.9858H105.501V18H101.282Z" fill="#AA5EB7"/>
</svg>
