<svg width="29" height="29" viewBox="0 0 29 29" fill="none" xmlns="http://www.w3.org/2000/svg">
<path d="M8.94444 9.35294H20.0556M8.94444 15.2353H17.2778M10.3333 22.5882H6.16667C5.0616 22.5882 4.00179 22.1234 3.22039 21.2961C2.43899 20.4687 2 19.3465 2 18.1765V6.41176C2 5.24169 2.43899 4.11954 3.22039 3.29218C4.00179 2.46481 5.0616 2 6.16667 2H22.8333C23.9384 2 24.9982 2.46481 25.7796 3.29218C26.561 4.11954 27 5.24169 27 6.41176V18.1765C27 19.3465 26.561 20.4687 25.7796 21.2961C24.9982 22.1234 23.9384 22.5882 22.8333 22.5882H18.6667L14.5 27L10.3333 22.5882Z" stroke="white" stroke-width="3" stroke-linecap="round" stroke-linejoin="round"/>
</svg>
