<svg width="27" height="29" viewBox="0 0 27 29" fill="none" xmlns="http://www.w3.org/2000/svg">
<path d="M7.94444 8.94118H19.0556H7.94444ZM7.94444 15.2941H16.2778H7.94444ZM9.33333 23.2353H5.16667C4.0616 23.2353 3.00179 22.7333 2.22039 21.8397C1.43899 20.9462 1 19.7343 1 18.4706V5.76471C1 4.50103 1.43899 3.28911 2.22039 2.39555C3.00179 1.50199 4.0616 1 5.16667 1H21.8333C22.9384 1 23.9982 1.50199 24.7796 2.39555C25.561 3.28911 26 4.50103 26 5.76471V18.4706C26 19.7343 25.561 20.9462 24.7796 21.8397C23.9982 22.7333 22.9384 23.2353 21.8333 23.2353H17.6667L13.5 28L9.33333 23.2353Z" fill="white"/>
<path d="M7.94444 8.94118H19.0556M7.94444 15.2941H16.2778M9.33333 23.2353H5.16667C4.0616 23.2353 3.00179 22.7333 2.22039 21.8397C1.43899 20.9462 1 19.7343 1 18.4706V5.76471C1 4.50103 1.43899 3.28911 2.22039 2.39555C3.00179 1.50199 4.0616 1 5.16667 1H21.8333C22.9384 1 23.9982 1.50199 24.7796 2.39555C25.561 3.28911 26 4.50103 26 5.76471V18.4706C26 19.7343 25.561 20.9462 24.7796 21.8397C23.9982 22.7333 22.9384 23.2353 21.8333 23.2353H17.6667L13.5 28L9.33333 23.2353Z" stroke="#AA5EB7" stroke-width="2" stroke-linecap="round" stroke-linejoin="round"/>
</svg>
