<svg width="36" height="36" viewBox="0 0 36 36" fill="none" xmlns="http://www.w3.org/2000/svg">
<path d="M28.4211 18.9474C27.3789 18.9474 26.5263 19.8 26.5263 20.8421V30.7326C26.5263 31.7747 25.6737 32.6274 24.6316 32.6274H5.68421C4.64211 32.6274 3.78947 31.7747 3.78947 30.7326V11.3684C3.78947 10.3263 4.64211 9.47368 5.68421 9.47368H15.1579C16.2 9.47368 17.0526 8.62105 17.0526 7.57895C17.0526 6.53684 16.2 5.68421 15.1579 5.68421H3.78947C1.70526 5.68421 0 7.38947 0 9.47368V32.2105C0 34.2947 1.70526 36 3.78947 36H26.5263C28.6105 36 30.3158 34.2947 30.3158 32.2105V20.8421C30.3158 19.8 29.4632 18.9474 28.4211 18.9474ZM34.1432 5.68421H30.3158V1.85684C30.3158 0.833684 29.4821 0 28.4589 0H28.4021C27.36 0 26.5263 0.833684 26.5263 1.85684V5.68421H22.7179C21.6947 5.68421 20.8611 6.51789 20.8421 7.54105V7.5979C20.8421 8.64 21.6758 9.47368 22.7179 9.47368H26.5263V13.2821C26.5263 14.3053 27.36 15.1579 28.4021 15.1389H28.4589C29.4821 15.1389 30.3158 14.3053 30.3158 13.2821V9.47368H34.1432C35.1663 9.47368 36 8.64 36 7.61684V7.54105C36 6.51789 35.1663 5.68421 34.1432 5.68421Z" fill="white"/>
<path d="M20.8421 13.2632H9.47372C8.43161 13.2632 7.57898 14.1158 7.57898 15.1579C7.57898 16.2 8.43161 17.0527 9.47372 17.0527H20.8421C21.8842 17.0527 22.7369 16.2 22.7369 15.1579C22.7369 14.1158 21.8842 13.2632 20.8421 13.2632ZM20.8421 18.9474H9.47372C8.43161 18.9474 7.57898 19.8 7.57898 20.8421C7.57898 21.8842 8.43161 22.7369 9.47372 22.7369H20.8421C21.8842 22.7369 22.7369 21.8842 22.7369 20.8421C22.7369 19.8 21.8842 18.9474 20.8421 18.9474ZM20.8421 24.6316H9.47372C8.43161 24.6316 7.57898 25.4842 7.57898 26.5263C7.57898 27.5684 8.43161 28.4211 9.47372 28.4211H20.8421C21.8842 28.4211 22.7369 27.5684 22.7369 26.5263C22.7369 25.4842 21.8842 24.6316 20.8421 24.6316Z" fill="white"/>
</svg>
