<svg width="25" height="27" viewBox="0 0 25 27" fill="none" xmlns="http://www.w3.org/2000/svg">
<path d="M24.3268 10.7676L13.9102 0.576903C13.9051 0.572297 13.9003 0.567335 13.8958 0.562052C13.5123 0.200401 13.0125 0 12.4941 0C11.9757 0 11.476 0.200401 11.0924 0.562052L11.0781 0.576903L0.673177 10.7676C0.460935 10.9699 0.291515 11.2158 0.17564 11.4895C0.0597646 11.7633 -4.38058e-05 12.059 2.40727e-08 12.358V24.8398C2.40727e-08 25.4127 0.219493 25.9622 0.610194 26.3673C1.00089 26.7724 1.5308 27 2.08333 27H8.33333C8.88587 27 9.41577 26.7724 9.80647 26.3673C10.1972 25.9622 10.4167 25.4127 10.4167 24.8398V18.3593H14.5833V24.8398C14.5833 25.4127 14.8028 25.9622 15.1935 26.3673C15.5842 26.7724 16.1141 27 16.6667 27H22.9167C23.4692 27 23.9991 26.7724 24.3898 26.3673C24.7805 25.9622 25 25.4127 25 24.8398V12.358C25 12.059 24.9402 11.7633 24.8244 11.4895C24.7085 11.2158 24.5391 10.9699 24.3268 10.7676ZM22.9167 24.8398H16.6667V18.3593C16.6667 17.7864 16.4472 17.2369 16.0565 16.8318C15.6658 16.4267 15.1359 16.1991 14.5833 16.1991H10.4167C9.86413 16.1991 9.33423 16.4267 8.94353 16.8318C8.55283 17.2369 8.33333 17.7864 8.33333 18.3593V24.8398H2.08333V12.358L2.09766 12.3445L12.5 2.15789L22.9036 12.3418L22.918 12.3553L22.9167 24.8398Z" fill="white"/>
</svg>
