<svg width="25" height="27" viewBox="0 0 25 27" fill="none" xmlns="http://www.w3.org/2000/svg">
<path d="M25 12.358V24.8398C25 25.4127 24.7805 25.9622 24.3898 26.3673C23.9991 26.7724 23.4692 27 22.9166 27H17.7083C17.1558 27 16.6259 26.7724 16.2352 26.3673C15.8445 25.9622 15.625 25.4127 15.625 24.8398V19.4394C15.625 19.1529 15.5152 18.8782 15.3199 18.6756C15.1245 18.4731 14.8596 18.3593 14.5833 18.3593H10.4167C10.1404 18.3593 9.87543 18.4731 9.68009 18.6756C9.48473 18.8782 9.37499 19.1529 9.37499 19.4394V24.8398C9.37499 25.4127 9.15549 25.9622 8.76479 26.3673C8.37409 26.7724 7.84419 27 7.29166 27H2.08333C1.5308 27 1.00089 26.7724 0.610193 26.3673C0.219493 25.9622 2.40727e-08 25.4127 2.40727e-08 24.8398V12.358C-4.38057e-05 12.059 0.0597645 11.7633 0.17564 11.4895C0.291515 11.2158 0.460934 10.9699 0.673176 10.7676L11.0898 0.576903L11.1042 0.562052C11.4877 0.200401 11.9874 0 12.5058 0C13.0242 0 13.524 0.200401 13.9075 0.562052C13.912 0.567335 13.9168 0.572297 13.9219 0.576903L24.3385 10.7676C24.5486 10.971 24.7159 11.2173 24.8297 11.491C24.9435 11.7648 25.0015 12.0599 25 12.358Z" fill="white"/>
</svg>
