<svg width="25" height="27" viewBox="0 0 25 27" fill="none" xmlns="http://www.w3.org/2000/svg">
<path d="M21.25 14.04C22.2446 14.04 23.1984 14.3814 23.9017 14.989C24.6049 15.5966 25 16.4207 25 17.28V18.36C25 22.6174 20.35 27 12.5 27C4.65 27 0 22.6174 0 18.36V17.28C0 16.4207 0.395088 15.5966 1.09835 14.989C1.80161 14.3814 2.75544 14.04 3.75 14.04H21.25ZM21.25 16.2H3.75C3.41848 16.2 3.10054 16.3138 2.86612 16.5163C2.6317 16.7189 2.5 16.9936 2.5 17.28V18.36C2.5 21.4661 6.08 24.84 12.5 24.84C18.92 24.84 22.5 21.4661 22.5 18.36V17.28C22.5 16.9936 22.3683 16.7189 22.1339 16.5163C21.8995 16.3138 21.5815 16.2 21.25 16.2ZM12.5 0C14.3234 0 16.072 0.62582 17.3614 1.73979C18.6507 2.85375 19.375 4.36461 19.375 5.94C19.375 7.51539 18.6507 9.02625 17.3614 10.1402C16.072 11.2542 14.3234 11.88 12.5 11.88C10.6766 11.88 8.92795 11.2542 7.63864 10.1402C6.34933 9.02625 5.625 7.51539 5.625 5.94C5.625 4.36461 6.34933 2.85375 7.63864 1.73979C8.92795 0.62582 10.6766 0 12.5 0ZM12.5 2.16C11.3397 2.16 10.2269 2.55825 9.40641 3.26714C8.58594 3.97602 8.125 4.93748 8.125 5.94C8.125 6.94252 8.58594 7.90398 9.40641 8.61286C10.2269 9.32175 11.3397 9.72 12.5 9.72C13.6603 9.72 14.7731 9.32175 15.5936 8.61286C16.4141 7.90398 16.875 6.94252 16.875 5.94C16.875 4.93748 16.4141 3.97602 15.5936 3.26714C14.7731 2.55825 13.6603 2.16 12.5 2.16Z" fill="white"/>
</svg>
