<svg width="25" height="27" viewBox="0 0 25 27" fill="none" xmlns="http://www.w3.org/2000/svg">
<path d="M21.25 14.04C22.2446 14.04 23.1984 14.3814 23.9017 14.989C24.6049 15.5966 25 16.4207 25 17.28V18.36C25 22.6174 20.35 27 12.5 27C4.65 27 0 22.6174 0 18.36V17.28C0 16.4207 0.395088 15.5966 1.09835 14.989C1.80161 14.3814 2.75544 14.04 3.75 14.04H21.25ZM12.5 0C14.3234 0 16.072 0.62582 17.3614 1.73979C18.6507 2.85375 19.375 4.36461 19.375 5.94C19.375 7.51539 18.6507 9.02625 17.3614 10.1402C16.072 11.2542 14.3234 11.88 12.5 11.88C10.6766 11.88 8.92795 11.2542 7.63864 10.1402C6.34933 9.02625 5.625 7.51539 5.625 5.94C5.625 4.36461 6.34933 2.85375 7.63864 1.73979C8.92795 0.62582 10.6766 0 12.5 0Z" fill="white"/>
</svg>
